<svg id="Iconly_Broken_Add_User" data-name="Iconly/Broken/Add User" xmlns="http://www.w3.org/2000/svg" width="16" height="16" viewBox="0 0 16 16">
  <g id="Add_User" data-name="Add User">
    <path id="Add_User-2" data-name="Add User" d="M5.527,15.99a.574.574,0,0,1-.555-.592.587.587,0,0,1,.588-.558q.381.012.777.012c3.445,0,5.192-.6,5.192-1.788s-1.747-1.8-5.192-1.8-5.193.6-5.193,1.787c0,.388.137.95,1.327,1.355A.574.574,0,0,1,2.1,15.492C.365,14.9,0,13.836,0,13.048c0-2.632,3.617-2.936,6.338-2.936,1.567,0,6.337,0,6.337,2.952C12.674,15.7,9.058,16,6.338,16,6.063,16,5.792,16,5.527,15.99Zm7.646-7.355v-1H12.142a.6.6,0,0,1,0-1.2h1.031v-1a.6.6,0,1,1,1.2,0v1H15.4a.6.6,0,0,1,0,1.2H14.369v1a.6.6,0,1,1-1.2,0ZM2.07,4.283A4.267,4.267,0,1,1,6.337,8.567,4.28,4.28,0,0,1,2.07,4.283Zm1.145,0A3.122,3.122,0,1,0,6.337,1.15,3.131,3.131,0,0,0,3.215,4.283Z" fill="#457c77"/>
  </g>
</svg>
