<svg id="Iconly_Broken_Calendar" data-name="Iconly/Broken/Calendar" xmlns="http://www.w3.org/2000/svg" width="16" height="17" viewBox="0 0 16 17">
  <g id="Calendar">
    <path id="Calendar-2" data-name="Calendar" d="M5,17c-3.316,0-5-1.436-5-4.263V5.708A3.811,3.811,0,0,1,1.84,2.1a.632.632,0,0,1,.65-.023.594.594,0,0,1-.063,1.076A2.631,2.631,0,0,0,1.222,5.708v.225H12.5a.594.594,0,1,1,0,1.188H1.222v5.617c0,2.157,1.1,3.052,3.779,3.068h6c2.643,0,3.772-.917,3.772-3.075V5.7c0-1.88-.858-2.79-2.814-3.008v.571a.62.62,0,0,1-1.229-.045V.572a.583.583,0,0,1,.2-.416.62.62,0,0,1,1.031.469V1.5C14.632,1.753,16,3.166,16,5.708v7.03C16,15.564,14.315,17,11,17Zm5.952-4.18a.762.762,0,0,1,.773-.752h-.008a.785.785,0,0,1,.552.217.743.743,0,0,1,.229.535.773.773,0,0,1-1.546,0Zm-3.71,0a.773.773,0,1,1,.773.752A.763.763,0,0,1,7.242,12.82Zm-3.7,0a.763.763,0,0,1,.773-.752H4.306a.784.784,0,0,1,.551.217.74.74,0,0,1,.229.535.773.773,0,0,1-1.546,0Zm7.413-3.045a.762.762,0,0,1,.773-.751h-.008a.782.782,0,0,1,.552.217.743.743,0,0,1,.229.534.773.773,0,0,1-1.546,0Zm-3.71,0a.773.773,0,1,1,.773.752A.763.763,0,0,1,7.242,9.775Zm-3.7,0a.763.763,0,0,1,.773-.751H4.306a.78.78,0,0,1,.551.217.739.739,0,0,1,.229.534.773.773,0,0,1-1.546,0Zm1.1-5.954a.6.6,0,0,1-.6-.6V.625a.62.62,0,0,1,1.229,0v.819H8.766a.594.594,0,1,1,0,1.188H5.256v.594a.587.587,0,0,1-.182.423.621.621,0,0,1-.431.171Z" fill="#457c77"/>
  </g>
</svg>
