<svg id="Iconly_Broken_Calling" data-name="Iconly/Broken/Calling" xmlns="http://www.w3.org/2000/svg" width="15" height="15" viewBox="0 0 15 15">
  <g id="Calling" transform="translate(0)">
    <path id="Calling-2" data-name="Calling" d="M9.645,14.564C7.239,13.557,3.6,10.3,1.557,7.3A.558.558,0,0,1,1.7,6.529a.551.551,0,0,1,.768.144c1.91,2.795,5.4,5.942,7.623,6.873a1.975,1.975,0,0,0,2.066.087c.387-.238,1.49-1.341,1.471-1.914a.741.741,0,0,0-.214-.329,13.246,13.246,0,0,0-2.144-1.635c-.238-.049-.479.092-.851.328l-.191.12a.551.551,0,0,1-.758-.19.559.559,0,0,1,.188-.764l.173-.107a2.241,2.241,0,0,1,1.7-.467A11.415,11.415,0,0,1,14.2,10.611a1.708,1.708,0,0,1,.526,1.042c.048,1.366-1.77,2.794-1.978,2.914A2.3,2.3,0,0,1,11.368,15,4.114,4.114,0,0,1,9.645,14.564ZM7.351,9.326A7.718,7.718,0,0,1,4.706,5.893a1.814,1.814,0,0,1,.27-1.627c.166-.291.259-.464.219-.65A14.067,14.067,0,0,0,3.581,1.488a.665.665,0,0,0-.354-.218c-.5-.023-1.605,1.038-1.85,1.446a2.008,2.008,0,0,0,.055,2.1.558.558,0,0,1-.274.737.55.55,0,0,1-.731-.276A3.035,3.035,0,0,1,.459,2.1C.585,1.885,1.987.073,3.3.161A1.693,1.693,0,0,1,4.353.692a11.515,11.515,0,0,1,1.924,2.7A1.974,1.974,0,0,1,5.933,4.82c-.2.342-.263.488-.2.673A6.6,6.6,0,0,0,7.993,8.42a.559.559,0,0,1,.128.776.55.55,0,0,1-.77.13ZM11.3,5.886a2.705,2.705,0,0,0-2.14-2.155.556.556,0,0,1,.211-1.092,3.811,3.811,0,0,1,3.014,3.034.556.556,0,0,1-.437.653.57.57,0,0,1-.107.009A.553.553,0,0,1,11.3,5.886Zm2.6-.051A5.31,5.31,0,0,0,9.2,1.11.556.556,0,0,1,8.712.5.55.55,0,0,1,9.323,0,6.409,6.409,0,0,1,15,5.71a.554.554,0,0,1-.487.615.506.506,0,0,1-.063,0A.554.554,0,0,1,13.9,5.835Z" fill="#457c77"/>
  </g>
</svg>
