<svg id="Icon_feather-upload-cloud" data-name="Icon feather-upload-cloud" xmlns="http://www.w3.org/2000/svg" width="28.502" height="23.746" viewBox="0 0 28.502 23.746">
  <path id="Path_210" data-name="Path 210" d="M21.187,23.624a1.184,1.184,0,0,1-.84-.348l-3.91-3.91-3.91,3.91A1.187,1.187,0,0,1,10.848,21.6l4.75-4.75a1.187,1.187,0,0,1,1.679,0l4.75,4.75a1.187,1.187,0,0,1-.84,2.027Z" transform="translate(-2.181 -5.816)" fill="#457c77"/>
  <path id="Path_211" data-name="Path 211" d="M17.687,29.561A1.187,1.187,0,0,1,16.5,28.374V17.687a1.187,1.187,0,1,1,2.375,0V28.374A1.187,1.187,0,0,1,17.687,29.561Z" transform="translate(-3.431 -5.816)" fill="#457c77"/>
  <path id="Path_212" data-name="Path 212" d="M24.21,23.65a1.188,1.188,0,0,1-.569-2.23,4.75,4.75,0,0,0-2.27-8.92h-1.5a1.187,1.187,0,0,1-1.15-.89A8.312,8.312,0,1,0,4.45,19.194a1.187,1.187,0,0,1-1.78,1.573A10.687,10.687,0,1,1,20.753,10.125h.618A7.124,7.124,0,0,1,24.777,23.5,1.182,1.182,0,0,1,24.21,23.65Z" transform="translate(0.009 -3.003)" fill="#457c77"/>
  <path id="Path_213" data-name="Path 213" d="M21.187,23.624a1.184,1.184,0,0,1-.84-.348l-3.91-3.91-3.91,3.91A1.187,1.187,0,0,1,10.848,21.6l4.75-4.75a1.187,1.187,0,0,1,1.679,0l4.75,4.75a1.187,1.187,0,0,1-.84,2.027Z" transform="translate(-2.181 -5.816)" fill="#457c77"/>
</svg>
