<svg xmlns="http://www.w3.org/2000/svg" width="16" height="13.985" viewBox="0 0 16 13.985">
  <path id="customer-care" d="M10.645,7.115l-.069.214-.01.018-.009.012a.941.941,0,0,1-.26.03,1.672,1.672,0,0,0,.079-.733h0a.2.2,0,0,1,.079-.176.888.888,0,0,0,.31-.441l.043-.34a.642.642,0,0,0-.025-.137.1.1,0,0,0-.014-.038h-.034a.2.2,0,0,1-.187-.2,3.353,3.353,0,0,0-.178-1.319A1.873,1.873,0,0,0,9.5,3.32c-.064-.027-.13-.057-.2-.091C8.116,4.471,7.132,2.874,5.721,5.28H5.673c-.018.042-.038.083-.056.13l-.01.021a.2.2,0,0,1-.272.073q-.048-.027-.055-.023c-.008,0-.017.021-.029.048a.612.612,0,0,0-.043.2,1.187,1.187,0,0,0,.26.829A.2.2,0,0,1,5.53,6.7,1.894,1.894,0,0,0,6.4,8.282l.2.169a2.184,2.184,0,0,0,1.432.628,1.955,1.955,0,0,0,1.368-.617h.585l-.105.1-.193.182a2.369,2.369,0,0,1-1.646.736,2.6,2.6,0,0,1-1.7-.729l-.19-.167a2.265,2.265,0,0,1-.966-1.46l-.628.051a.466.466,0,0,1-.527-.382L3.776,4.87a.462.462,0,0,1,.418-.509l.2-.017a.232.232,0,0,1-.021-.085A3.773,3.773,0,0,1,6.283.4a3.876,3.876,0,0,1,3.79.2,3.425,3.425,0,0,1,1.448,3.687.319.319,0,0,1-.023.07l.311.035a.5.5,0,0,1,.441.556l-.241,1.831a.512.512,0,0,1-.572.428h0a3.677,3.677,0,0,1-.13.408.911.911,0,0,1-.2.3c-.26.268-1.1.268-1.4.268H8.931a.911.911,0,0,1-.684.26c-.432,0-.781-.229-.781-.512s.349-.512.781-.512a.919.919,0,0,1,.659.259h.8a2.8,2.8,0,0,0,1.049-.121.391.391,0,0,0,.083-.13l.089-.276-.284-.033Zm-5.7-3.578a3.376,3.376,0,0,1,5.135-2.042,2.435,2.435,0,0,1,.556.437,2.75,2.75,0,0,0-.888-.911A3.234,3.234,0,0,0,8.18.519,3.176,3.176,0,0,0,6.563.849,3.078,3.078,0,0,0,4.948,3.536ZM5.831,9.5l1.2,3.15.6-1.717-.3-.323c-.223-.326-.146-.694.26-.76a2.977,2.977,0,0,1,.447-.009,2.355,2.355,0,0,1,.491.02c.383.083.423.454.232.75l-.29.323.6,1.719L10.169,9.5c.781.706,3.543.848,4.406,1.328,1.2.669,1.163,1.953,1.424,3.151H0c.26-1.186.233-2.492,1.424-3.151C2.486,10.24,4.962,10.285,5.831,9.5Z" transform="translate(0 0.002)" fill="#457c77"/>
</svg>
