<svg id="Iconly_Broken_Discovery" data-name="Iconly/Broken/Discovery" xmlns="http://www.w3.org/2000/svg" width="16" height="16" viewBox="0 0 16 16">
  <g id="Discovery" transform="translate(0 0)">
    <path id="Discovery-2" data-name="Discovery" d="M4.593,15.241A8,8,0,0,1,8,0a7.727,7.727,0,0,1,1.74.2A7.986,7.986,0,0,1,15.8,9.784a.624.624,0,1,1-1.207-.309,6.72,6.72,0,1,0-1.249,2.655.625.625,0,0,1,.968.765,7.982,7.982,0,0,1-9.718,2.345Zm.661-4.087a.62.62,0,0,1-.407-.78l1.22-3.905a.625.625,0,0,1,.407-.4l3.9-1.222a.537.537,0,0,1,.364,0,.61.61,0,0,1,.407.773L9.9,9.531a.618.618,0,0,1-.315.372l-.7.351a.625.625,0,0,1-.533-1.124l.47-.232L9.6,6.384l-2.455.773L6.026,10.746a.617.617,0,0,1-.772.408Z" fill="#457c77"/>
  </g>
</svg>
