<svg id="Iconly_Broken_Delete" data-name="Iconly/Broken/Delete" xmlns="http://www.w3.org/2000/svg" width="15" height="16" viewBox="0 0 15 16">
  <g id="Delete" transform="translate(0 0)">
    <path id="Delete-2" data-name="Delete" d="M7.659,16a.585.585,0,1,1,0-1.17h0c1.265,0,1.72-.006,2.986-.028a1.224,1.224,0,0,0,1.34-1.221c.253-2.241.693-7.6.7-7.657a.6.6,0,0,1,.641-.537.588.588,0,0,1,.544.631c0,.053-.445,5.434-.7,7.69a2.391,2.391,0,0,1-2.5,2.262c-1.072.019-1.33.03-2.4.03Zm-3.388-.032a2.388,2.388,0,0,1-2.444-2.254c-.256-2.277-.694-7.643-.7-7.7a.589.589,0,0,1,.544-.631.6.6,0,0,1,.641.538c0,.053.442,5.4.7,7.659A1.207,1.207,0,0,0,4.3,14.8a.585.585,0,1,1-.012,1.17Zm-3.677-12a.585.585,0,1,1,0-1.171H3.256a.745.745,0,0,0,.732-.589l.2-.976A1.645,1.645,0,0,1,5.777,0H9.224a1.636,1.636,0,0,1,1.582,1.2.585.585,0,0,1-.42.718A.6.6,0,0,1,9.657,1.5a.449.449,0,0,0-.433-.327H5.777a.449.449,0,0,0-.434.327l-.189.938a1.939,1.939,0,0,1-.115.361h9.367a.585.585,0,1,1,0,1.171Z" transform="translate(0 0)" fill="#ff1b22"/>
  </g>
</svg>
