<svg xmlns="http://www.w3.org/2000/svg" width="15.489" height="15.522" viewBox="0 0 15.489 15.522">
  <g id="Iconly_Light_Edit_Square" data-name="Iconly/Light/Edit Square" transform="translate(0.75 0.901)">
    <g id="Edit_Square" data-name="Edit Square">
      <path id="Stroke_1" data-name="Stroke 1" d="M6.422,0H3.675A3.565,3.565,0,0,0,0,3.866V9.977a3.561,3.561,0,0,0,3.675,3.866h6.482a3.561,3.561,0,0,0,3.676-3.866V7.016" transform="translate(0 0.028)" fill="none" stroke="#457c77" stroke-linecap="round" stroke-linejoin="round" stroke-miterlimit="10" stroke-width="1.5"/>
      <path id="Stroke_3" data-name="Stroke 3" d="M.535,6.006,6.025.513A1.751,1.751,0,0,1,8.5.513l.894.895a1.753,1.753,0,0,1,0,2.478L3.879,9.4a1.594,1.594,0,0,1-1.128.467H0L.069,7.093A1.6,1.6,0,0,1,.535,6.006Z" transform="translate(3.929)" fill="none" stroke="#457c77" stroke-linecap="round" stroke-linejoin="round" stroke-miterlimit="10" stroke-width="1.5"/>
      <path id="Stroke_5" data-name="Stroke 5" d="M0,0,3.354,3.356" transform="translate(9.12 1.361)" fill="none" stroke="#457c77" stroke-linecap="round" stroke-linejoin="round" stroke-miterlimit="10" stroke-width="1.5"/>
    </g>
  </g>
</svg>
