<svg id="Iconly_Broken_Message" data-name="Iconly/Broken/Message" xmlns="http://www.w3.org/2000/svg" width="15" height="14" viewBox="0 0 15 14">
  <g id="Message">
    <path id="Message-2" data-name="Message" d="M4.352,14A4.459,4.459,0,0,1,0,9.454V4.546A4.453,4.453,0,0,1,4.352,0h6.3A4.466,4.466,0,0,1,15,4.546V5.683a.543.543,0,0,1-.531.554l-.007-.014a.519.519,0,0,1-.375-.162.568.568,0,0,1-.155-.392V4.546a3.394,3.394,0,0,0-3.284-3.431h-6.3A3.394,3.394,0,0,0,1.068,4.546V9.454a3.394,3.394,0,0,0,3.284,3.431h6.3a3.394,3.394,0,0,0,3.284-3.431.535.535,0,0,1,1.068,0A4.466,4.466,0,0,1,10.648,14ZM6.037,7.762,2.946,5.177a.579.579,0,0,1-.08-.783.521.521,0,0,1,.355-.2.51.51,0,0,1,.388.121L6.727,6.889a1.039,1.039,0,0,0,1.327,0l3.085-2.579h.007a.522.522,0,0,1,.749.083.57.57,0,0,1,.113.41.561.561,0,0,1-.2.373L8.724,7.762a2.072,2.072,0,0,1-2.687,0Z" fill="#457c77"/>
  </g>
</svg>
