<svg id="Iconly_Broken_Filter" data-name="Iconly/Broken/Filter" xmlns="http://www.w3.org/2000/svg" width="17" height="16" viewBox="0 0 17 16">
  <g id="Filter" transform="translate(0 0)">
    <path id="Filter-2" data-name="Filter" d="M10.6,12.873a3.166,3.166,0,0,1,3.2-3.127,3.274,3.274,0,0,1,.714.078.733.733,0,0,1,.566.877.752.752,0,0,1-.9.553,1.717,1.717,0,0,0-2.08,1.62,1.7,1.7,0,0,0,3.4,0,1.631,1.631,0,0,0-.023-.276.736.736,0,0,1,.617-.845.749.749,0,0,1,.863.6,3.044,3.044,0,0,1,.044.518,3.2,3.2,0,0,1-6.4,0ZM.75,13.606a.733.733,0,1,1,0-1.467H6.9a.733.733,0,1,1,0,1.467ZM0,3.127A3.035,3.035,0,0,1,.044,2.61a.748.748,0,0,1,.863-.6.736.736,0,0,1,.616.844,1.721,1.721,0,0,0-.023.276A1.681,1.681,0,0,0,3.2,4.788,1.681,1.681,0,0,0,4.9,3.127,1.7,1.7,0,0,0,2.821,1.508a.749.749,0,0,1-.9-.548A.732.732,0,0,1,2.48.08,3.206,3.206,0,0,1,3.2,0,3.166,3.166,0,0,1,6.4,3.127,3.167,3.167,0,0,1,3.2,6.255,3.167,3.167,0,0,1,0,3.127Zm10.1.734a.734.734,0,1,1,0-1.467H16.25a.734.734,0,1,1,0,1.467Z" transform="translate(0 0)" fill="#333"/>
  </g>
</svg>
