<svg id="Iconly_Broken_Info_Circle" data-name="Iconly/Broken/Info Circle" xmlns="http://www.w3.org/2000/svg" width="16" height="16" viewBox="0 0 16 16">
  <g id="Info_Circle" data-name="Info Circle" transform="translate(0)">
    <path id="Info_Circle-2" data-name="Info Circle" d="M1.658,12.879a.582.582,0,0,1,.922-.711A6.838,6.838,0,1,0,1.164,8a6.909,6.909,0,0,0,.078,1.039A.581.581,0,0,1,.755,9.7a.575.575,0,0,1-.662-.486,8,8,0,1,1,1.566,3.663ZM7.4,11.037a.6.6,0,0,1,.6-.6h.008a.6.6,0,1,1-.6.6ZM7.4,8.5V4.963a.6.6,0,1,1,1.2,0V8.5a.6.6,0,0,1-1.2,0Z" transform="translate(0)" fill="#457c77"/>
  </g>
</svg>
