<svg id="Iconly_Broken_Location" data-name="Iconly/Broken/Location" xmlns="http://www.w3.org/2000/svg" width="14" height="15" viewBox="0 0 14 15">
  <g id="Location" transform="translate(0)">
    <path id="Location-2" data-name="Location" d="M6.47,14.91a19.152,19.152,0,0,1-4.691-3.972A7.522,7.522,0,0,1,0,6.385C.015,2.839,3.153,0,7,0h.027C10.887.014,14.015,2.882,14,6.392v.07c-.053,2.508-1.708,4.59-3.088,5.894A16.3,16.3,0,0,1,9.67,13.421a.657.657,0,0,1-.866-.062.525.525,0,0,1,.068-.788c.4-.31.788-.643,1.153-.99,1.227-1.16,2.7-2.994,2.745-5.14A5.538,5.538,0,0,0,7.023,1.118H7A5.536,5.536,0,0,0,1.23,6.346a6.469,6.469,0,0,0,1.531,3.919,17.877,17.877,0,0,0,4.38,3.708.529.529,0,0,1,.179.774A.631.631,0,0,1,6.8,15,.659.659,0,0,1,6.47,14.91ZM4.334,6.46A.589.589,0,0,1,4.948,5.9a.589.589,0,0,1,.615.559A1.376,1.376,0,0,0,7,7.765a1.376,1.376,0,0,0,1.435-1.3A1.376,1.376,0,0,0,7,5.155.589.589,0,0,1,6.383,4.6.589.589,0,0,1,7,4.038,2.555,2.555,0,0,1,9.662,6.46,2.555,2.555,0,0,1,7,8.883,2.555,2.555,0,0,1,4.334,6.46Z" transform="translate(0)" fill="#457c77"/>
  </g>
</svg>
