<svg id="Iconly_Broken_Logout" data-name="Iconly/Broken/Logout" xmlns="http://www.w3.org/2000/svg" width="18.31" height="17.394" viewBox="0 0 18.31 17.394">
  <g id="Logout">
    <path id="Logout-2" data-name="Logout" d="M3.964,17.394A3.922,3.922,0,0,1,0,13.527a.678.678,0,0,1,.686-.669.678.678,0,0,1,.686.669,2.563,2.563,0,0,0,2.591,2.528H8.31a2.554,2.554,0,0,0,2.583-2.519v-.818a.687.687,0,0,1,1.373,0v.818A3.912,3.912,0,0,1,8.31,17.394ZM14.532,11.7a.658.658,0,0,1,0-.948l1.428-1.386H6.911a.67.67,0,1,1,0-1.341H17.623a.686.686,0,0,1,.634.414.66.66,0,0,1-.15.731L15.5,11.7a.7.7,0,0,1-.971,0ZM0,10.481V3.859A3.913,3.913,0,0,1,3.957,0H8.3a3.922,3.922,0,0,1,3.965,3.868v.81a.687.687,0,0,1-1.373,0v-.81A2.563,2.563,0,0,0,8.3,1.34H3.957A2.554,2.554,0,0,0,1.374,3.859v6.623a.679.679,0,0,1-.687.67A.679.679,0,0,1,0,10.481Zm15.192-3.2-.658-.634a.658.658,0,0,1,0-.947.7.7,0,0,1,.971,0l.657.633a.658.658,0,0,1,0,.948.7.7,0,0,1-.971,0Z" fill="#457c77"/>
  </g>
</svg>
