<svg xmlns="http://www.w3.org/2000/svg" width="16.21" height="16.21" viewBox="0 0 16.21 16.21">
  <g id="vuesax_outline_brush" data-name="vuesax/outline/brush" transform="translate(-236 -252)">
    <g id="brush" transform="translate(236 252)">
      <path id="Vector" d="M9.287,14.521H5.234C1.567,14.521,0,12.954,0,9.287V5.234C0,1.567,1.567,0,5.234,0H6.585a.51.51,0,0,1,.507.507.51.51,0,0,1-.507.507H5.234c-3.114,0-4.221,1.108-4.221,4.221V9.287c0,3.114,1.108,4.221,4.221,4.221H9.287c3.114,0,4.221-1.108,4.221-4.221V7.936a.507.507,0,0,1,1.013,0V9.287C14.521,12.954,12.961,14.521,9.287,14.521Z" transform="translate(0.824 0.844)" fill="#457c77"/>
      <path id="Vector-2" data-name="Vector" d="M2.756,9.446a.485.485,0,0,1-.284-.088.5.5,0,0,1-.223-.419,1.458,1.458,0,0,0-.02-.236,1.653,1.653,0,0,0-.48-.952,1.692,1.692,0,0,0-.986-.5,1.151,1.151,0,0,0-.223-.007.5.5,0,0,1-.439-.2.527.527,0,0,1-.074-.48,1.912,1.912,0,0,1,.358-.615l.831-1.04A18.773,18.773,0,0,1,7.72.092,1.264,1.264,0,0,1,9.091.369a1.251,1.251,0,0,1,.284,1.378,18.815,18.815,0,0,1-4.816,6.5L3.5,9.1a2.531,2.531,0,0,1-.554.317A.62.62,0,0,1,2.756,9.446ZM1.365,6.36a2.83,2.83,0,0,1,1.1.675,2.7,2.7,0,0,1,.662,1.054l.8-.642A17.667,17.667,0,0,0,8.436,1.362a.254.254,0,0,0-.061-.284.25.25,0,0,0-.284-.047A17.706,17.706,0,0,0,2.013,5.542Z" transform="translate(5.876 0.847)" fill="#457c77"/>
      <path id="Vector-3" data-name="Vector" d="M1.64,5.575A1.645,1.645,0,0,1,.012,3.738L.154,2.414A2.687,2.687,0,0,1,2.815,0,3.5,3.5,0,0,1,3.186.01,2.7,2.7,0,0,1,4.78.8a2.593,2.593,0,0,1,.77,1.526,2.432,2.432,0,0,1,.027.378A2.716,2.716,0,0,1,3.166,5.426l-1.337.142A1.834,1.834,0,0,1,1.64,5.575ZM2.923,1.009H2.855a1.7,1.7,0,0,0-1.7,1.513L1.018,3.853a.653.653,0,0,0,.182.527.632.632,0,0,0,.513.182L3.044,4.42a1.7,1.7,0,0,0,1.006-.48A1.748,1.748,0,0,0,4.557,2.7a1.458,1.458,0,0,0-.02-.236,1.653,1.653,0,0,0-.48-.952,1.692,1.692,0,0,0-.986-.5A.91.91,0,0,0,2.923,1.009Z" transform="translate(3.561 7.089)" fill="#457c77"/>
      <path id="Vector-4" data-name="Vector" d="M3.066,3.573a.51.51,0,0,1-.507-.507A2.057,2.057,0,0,0,.507,1.013.51.51,0,0,1,0,.507.51.51,0,0,1,.507,0,3.068,3.068,0,0,1,3.573,3.066.506.506,0,0,1,3.066,3.573Z" transform="translate(7.619 5.025)" fill="#457c77"/>
      <path id="Vector-5" data-name="Vector" d="M0,0H16.21V16.21H0Z" fill="none" opacity="0"/>
    </g>
  </g>
</svg>
