<svg id="Iconly_Broken_Notification" data-name="Iconly/Broken/Notification" xmlns="http://www.w3.org/2000/svg" width="14" height="17" viewBox="0 0 14 17">
  <g id="Notification" transform="translate(0)">
    <path id="Notification-2" data-name="Notification" d="M4.677,15.826a.657.657,0,0,1,.084-.909A.62.62,0,0,1,5.649,15a1.727,1.727,0,0,0,.344.351,1.6,1.6,0,0,0,1.215.312A1.627,1.627,0,0,0,8.279,15h.007a.621.621,0,0,1,.888-.086.656.656,0,0,1,.084.909A2.9,2.9,0,0,1,6.964,17,2.9,2.9,0,0,1,4.677,15.826ZM3.326,13.463A3.938,3.938,0,0,1,.8,12.154,3.537,3.537,0,0,1,0,9.827v-.1A3.652,3.652,0,0,1,.6,7.935L.659,7.86a3.3,3.3,0,0,0,.73-1.5V4.824a.628.628,0,0,1,.653-.4.635.635,0,0,1,.553.539V6.5a.378.378,0,0,1,0,.082A4.527,4.527,0,0,1,1.586,8.661a2.2,2.2,0,0,0-.321,1.063v.164a2.233,2.233,0,0,0,.482,1.458,2.7,2.7,0,0,0,1.71.838,31.959,31.959,0,0,0,7.072,0,2.707,2.707,0,0,0,1.746-.875,2.207,2.207,0,0,0,.46-1.414V9.723a2.287,2.287,0,0,0-.314-1.069,4.527,4.527,0,0,1-1.067-2.079.513.513,0,0,1,0-.083V4.943A4.315,4.315,0,0,0,7.03,1.287a4.628,4.628,0,0,0-2.324.62.616.616,0,0,1-.64,0A.65.65,0,0,1,4.093.786,5.819,5.819,0,0,1,6.972,0a5.7,5.7,0,0,1,5.684,4.794V6.335a3.227,3.227,0,0,0,.731,1.5.634.634,0,0,1,.059.083A3.523,3.523,0,0,1,14,9.656l-.022.157a3.592,3.592,0,0,1-.775,2.341,3.976,3.976,0,0,1-2.572,1.309,32.487,32.487,0,0,1-3.653.206A32.5,32.5,0,0,1,3.326,13.463Z" fill="#333"/>
  </g>
</svg>
