<svg id="Iconly_Broken_Category" data-name="Iconly/Broken/Category" xmlns="http://www.w3.org/2000/svg" width="13.499" height="13.501" viewBox="0 0 13.499 13.501">
  <g id="Category">
    <path id="Category-2" data-name="Category" d="M9.453,13.5a2.083,2.083,0,0,1-2.042-2.092V9.369A2.066,2.066,0,0,1,9.453,7.284h2A2.082,2.082,0,0,1,13.5,9.369v2.04A2.091,2.091,0,0,1,11.451,13.5ZM8.507,9.369v2.04a.966.966,0,0,0,.276.685.923.923,0,0,0,.664.281h2.012a.923.923,0,0,0,.664-.281.964.964,0,0,0,.275-.685V9.369a.972.972,0,0,0-.277-.683.931.931,0,0,0-.669-.283h-2A.957.957,0,0,0,8.507,9.369ZM2.048,13.494A2.114,2.114,0,0,1,0,11.4V9.369A2.107,2.107,0,0,1,.6,7.892a2.019,2.019,0,0,1,1.448-.608h.821a.546.546,0,0,1,.526.261.572.572,0,0,1,0,.6.547.547,0,0,1-.526.262H2.048a.962.962,0,0,0-.952.966v2.014a.981.981,0,0,0,.952.966H4.059a.933.933,0,0,0,.673-.281.974.974,0,0,0,.279-.685V8.359a.567.567,0,0,1,.247-.577.542.542,0,0,1,.617.018.569.569,0,0,1,.214.592V11.4a2.07,2.07,0,0,1-2.048,2.091Zm8.6-7.258a.564.564,0,0,1,0-1.12h.8a.94.94,0,0,0,.673-.291.985.985,0,0,0,.272-.694V2.091a.969.969,0,0,0-.946-.966h-2a.956.956,0,0,0-.946.966v3.05a.562.562,0,0,1-.563.55.541.541,0,0,1-.384-.174.564.564,0,0,1-.148-.4V2.091a2.108,2.108,0,0,1,.6-1.478A2.022,2.022,0,0,1,9.453,0h2a2.114,2.114,0,0,1,2.042,2.091V4.125a2.107,2.107,0,0,1-.58,1.482,2.025,2.025,0,0,1-1.437.629Zm-6.6-.019h-2A2.084,2.084,0,0,1,0,4.131V2.091A2.091,2.091,0,0,1,2.048,0h2A2.082,2.082,0,0,1,6.1,2.091v2.04a2.093,2.093,0,0,1-.6,1.477,2.01,2.01,0,0,1-1.443.609ZM1.367,1.4a.982.982,0,0,0-.283.689v2.04a.979.979,0,0,0,.277.7.937.937,0,0,0,.667.283H4.046a.936.936,0,0,0,.674-.291.978.978,0,0,0,.272-.694V2.091a.967.967,0,0,0-.946-.966H2.03A.932.932,0,0,0,1.367,1.4Z" fill="#457c77"/>
  </g>
</svg>
