<svg xmlns="http://www.w3.org/2000/svg" width="20" height="20" viewBox="0 0 20 20">
  <g id="vuesax_outline_truck-fast" data-name="vuesax/outline/truck-fast" transform="translate(-748 -188)">
    <g id="truck-fast" transform="translate(748 188)">
      <path id="Vector" d="M9.166,11H8.351a.611.611,0,1,1,0-1.223h.815a1.019,1.019,0,0,0,1.019-1.019V1.223H3.46A2.657,2.657,0,0,0,1.144,2.584a.611.611,0,1,1-1.068-.6A3.887,3.887,0,0,1,3.46,0H10.8a.616.616,0,0,1,.611.611V8.763A2.24,2.24,0,0,1,9.166,11Z" transform="translate(1.431 1.019)" fill="gray"/>
      <path id="Vector-2" data-name="Vector" d="M14.469,13.45h-.815a.616.616,0,0,1-.611-.611,1.019,1.019,0,1,0-2.038,0,.616.616,0,0,1-.611.611H7.133a.616.616,0,0,1-.611-.611,1.019,1.019,0,1,0-2.038,0,.616.616,0,0,1-.611.611H3.057A3.058,3.058,0,0,1,0,10.393a.616.616,0,0,1,.611-.611.616.616,0,0,1,.611.611,1.837,1.837,0,0,0,1.834,1.834h.285a2.246,2.246,0,0,1,4.32,0H9.872a2.246,2.246,0,0,1,4.32,0h.277A1.837,1.837,0,0,0,16.3,10.393V8.559H14.469a1.433,1.433,0,0,1-1.427-1.427V4.687a1.428,1.428,0,0,1,1.427-1.427L13.6,1.736a1.02,1.02,0,0,0-.889-.514H11.82V6.318A2.24,2.24,0,0,1,9.578,8.559H8.763a.611.611,0,0,1,0-1.223h.815A1.019,1.019,0,0,0,10.6,6.318V.611A.616.616,0,0,1,11.209,0h1.5a2.24,2.24,0,0,1,1.948,1.133L16.051,3.57a.628.628,0,0,1,0,.611.606.606,0,0,1-.53.3H14.469a.2.2,0,0,0-.2.2V7.133a.2.2,0,0,0,.2.2h2.446a.616.616,0,0,1,.611.611v2.446A3.058,3.058,0,0,1,14.469,13.45Z" transform="translate(1.019 3.464)" fill="gray"/>
      <path id="Vector-3" data-name="Vector" d="M2.242,4.483A2.242,2.242,0,1,1,4.483,2.242,2.24,2.24,0,0,1,2.242,4.483Zm0-3.261A1.019,1.019,0,1,0,3.261,2.242,1.019,1.019,0,0,0,2.242,1.223Z" transform="translate(4.28 14.062)" fill="gray"/>
      <path id="Vector-4" data-name="Vector" d="M2.242,4.483A2.242,2.242,0,1,1,4.483,2.242,2.24,2.24,0,0,1,2.242,4.483Zm0-3.261A1.019,1.019,0,1,0,3.261,2.242,1.019,1.019,0,0,0,2.242,1.223Z" transform="translate(10.801 14.062)" fill="gray"/>
      <path id="Vector-5" data-name="Vector" d="M3.872,5.3H1.427A1.433,1.433,0,0,1,0,3.872V1.427A1.433,1.433,0,0,1,1.427,0H2.478a.6.6,0,0,1,.53.31L4.4,2.755a.642.642,0,0,1,.081.3v1.63A.616.616,0,0,1,3.872,5.3ZM1.427,1.223a.2.2,0,0,0-.2.2V3.872a.2.2,0,0,0,.2.2H3.261V3.22l-1.141-2Z" transform="translate(14.062 6.725)" fill="gray"/>
      <path id="Vector-6" data-name="Vector" d="M5.5,1.223H.611A.616.616,0,0,1,0,.611.616.616,0,0,1,.611,0H5.5a.616.616,0,0,1,.611.611A.616.616,0,0,1,5.5,1.223Z" transform="translate(1.019 5.91)" fill="gray"/>
      <path id="Vector-7" data-name="Vector" d="M3.872,1.223H.611A.616.616,0,0,1,0,.611.616.616,0,0,1,.611,0H3.872a.616.616,0,0,1,.611.611A.616.616,0,0,1,3.872,1.223Z" transform="translate(1.019 8.355)" fill="gray"/>
      <path id="Vector-8" data-name="Vector" d="M2.242,1.223H.611A.616.616,0,0,1,0,.611.616.616,0,0,1,.611,0h1.63a.616.616,0,0,1,.611.611A.616.616,0,0,1,2.242,1.223Z" transform="translate(1.019 10.801)" fill="gray"/>
      <path id="Vector-9" data-name="Vector" d="M0,0H19.564V19.564H0Z" fill="none" opacity="0"/>
    </g>
  </g>
</svg>
