<svg xmlns="http://www.w3.org/2000/svg" width="43" height="43" viewBox="0 0 43 43">
  <g id="Group_1859" data-name="Group 1859" transform="translate(-0.028 -0.488)">
    <rect id="Rectangle_1595" data-name="Rectangle 1595" width="43" height="43" rx="10" transform="translate(0.028 0.488)" fill="#9594fb"/>
    <g id="vuesax_outline_truck-fast" data-name="vuesax/outline/truck-fast" transform="translate(10.691 10.322)">
      <g id="truck-fast" transform="translate(0)">
        <path id="Vector" d="M10.819,12.99H9.857a.722.722,0,1,1,0-1.443h.962a1.2,1.2,0,0,0,1.2-1.2v-8.9H4.084A3.136,3.136,0,0,0,1.351,3.05a.721.721,0,1,1-1.261-.7A4.588,4.588,0,0,1,4.084,0h8.66a.727.727,0,0,1,.722.722v9.622A2.645,2.645,0,0,1,10.819,12.99Z" transform="translate(1.69 1.203)" fill="#fff"/>
        <path id="Vector-2" data-name="Vector" d="M17.079,15.877h-.962a.727.727,0,0,1-.722-.722,1.2,1.2,0,0,0-2.406,0,.727.727,0,0,1-.722.722H8.419a.727.727,0,0,1-.722-.722,1.2,1.2,0,0,0-2.406,0,.727.727,0,0,1-.722.722H3.608A3.61,3.61,0,0,1,0,12.268a.727.727,0,0,1,.722-.722.727.727,0,0,1,.722.722,2.168,2.168,0,0,0,2.165,2.165h.337a2.652,2.652,0,0,1,5.1,0h2.608a2.652,2.652,0,0,1,5.1,0h.327a2.168,2.168,0,0,0,2.165-2.165V10.1H17.079A1.692,1.692,0,0,1,15.4,8.419V5.533a1.686,1.686,0,0,1,1.684-1.684l-1.03-1.8A1.2,1.2,0,0,0,15,1.443H13.952V7.457A2.645,2.645,0,0,1,11.306,10.1h-.962a.722.722,0,0,1,0-1.443h.962a1.2,1.2,0,0,0,1.2-1.2V.722A.727.727,0,0,1,13.23,0H15a2.644,2.644,0,0,1,2.3,1.337l1.645,2.877a.741.741,0,0,1,0,.722.715.715,0,0,1-.625.356H17.079a.238.238,0,0,0-.241.241V8.419a.238.238,0,0,0,.241.241h2.887a.727.727,0,0,1,.722.722v2.887A3.61,3.61,0,0,1,17.079,15.877Z" transform="translate(1.203 4.089)" fill="#fff"/>
        <path id="Vector-3" data-name="Vector" d="M2.646,5.292A2.646,2.646,0,1,1,5.292,2.646,2.645,2.645,0,0,1,2.646,5.292Zm0-3.849a1.2,1.2,0,1,0,1.2,1.2A1.2,1.2,0,0,0,2.646,1.443Z" transform="translate(5.052 16.598)" fill="#fff"/>
        <path id="Vector-4" data-name="Vector" d="M2.646,5.292A2.646,2.646,0,1,1,5.292,2.646,2.645,2.645,0,0,1,2.646,5.292Zm0-3.849a1.2,1.2,0,1,0,1.2,1.2A1.2,1.2,0,0,0,2.646,1.443Z" transform="translate(12.749 16.598)" fill="#fff"/>
        <path id="Vector-5" data-name="Vector" d="M4.571,6.254H1.684A1.692,1.692,0,0,1,0,4.571V1.684A1.692,1.692,0,0,1,1.684,0H2.925a.7.7,0,0,1,.625.366L5.2,3.252a.758.758,0,0,1,.1.356V5.533A.727.727,0,0,1,4.571,6.254ZM1.684,1.443a.238.238,0,0,0-.241.241V4.571a.238.238,0,0,0,.241.241H3.849V3.8L2.5,1.443Z" transform="translate(16.598 7.938)" fill="#fff"/>
        <path id="Vector-6" data-name="Vector" d="M6.495,1.443H.722A.727.727,0,0,1,0,.722.727.727,0,0,1,.722,0H6.495a.727.727,0,0,1,.722.722A.727.727,0,0,1,6.495,1.443Z" transform="translate(1.203 6.976)" fill="#fff"/>
        <path id="Vector-7" data-name="Vector" d="M4.571,1.443H.722A.727.727,0,0,1,0,.722.727.727,0,0,1,.722,0H4.571a.727.727,0,0,1,.722.722A.727.727,0,0,1,4.571,1.443Z" transform="translate(1.203 9.863)" fill="#fff"/>
        <path id="Vector-8" data-name="Vector" d="M2.646,1.443H.722A.727.727,0,0,1,0,.722.727.727,0,0,1,.722,0H2.646a.727.727,0,0,1,.722.722A.727.727,0,0,1,2.646,1.443Z" transform="translate(1.203 12.749)" fill="#fff"/>
        <path id="Vector-9" data-name="Vector" d="M0,0H23.093V23.093H0Z" fill="none" opacity="0"/>
      </g>
    </g>
  </g>
</svg>
