<svg id="Iconly_Broken_Password" data-name="Iconly/Broken/Password" xmlns="http://www.w3.org/2000/svg" width="15" height="15" viewBox="0 0 15 15">
  <g id="Password">
    <path id="Password-2" data-name="Password" d="M6.715,15a.562.562,0,1,1,0-1.125H10.75a3.02,3.02,0,0,0,3.125-3.312V4.437a3.019,3.019,0,0,0-3.125-3.312h-6.5A3.018,3.018,0,0,0,1.125,4.437v6.126a3.019,3.019,0,0,0,3.123,3.312.562.562,0,1,1,0,1.125A4.114,4.114,0,0,1,0,10.563V4.437A4.114,4.114,0,0,1,4.248,0h6.5A4.115,4.115,0,0,1,15,4.437v6.126A4.115,4.115,0,0,1,10.75,15Zm3.98-6.112V8.062h-1v.826a.563.563,0,1,1-1.125,0V8.062H6.988A1.947,1.947,0,1,1,3.35,6.7a.562.562,0,1,1,1.026.461.827.827,0,1,0,.754-.487.562.562,0,1,1,0-1.125A1.946,1.946,0,0,1,6.988,6.937h4.269a.563.563,0,0,1,.562.563V8.888a.563.563,0,1,1-1.125,0Z" fill="#457c77"/>
  </g>
</svg>
