<svg id="Iconly_Light-outline_Wallet" data-name="Iconly/Light-outline/Wallet" xmlns="http://www.w3.org/2000/svg" width="14" height="13" viewBox="0 0 14 13">
  <g id="Wallet">
    <path id="Wallet-2" data-name="Wallet" d="M4.069,13A4.072,4.072,0,0,1,0,8.933V4.067A4.072,4.072,0,0,1,4.069,0H9.931A4.072,4.072,0,0,1,14,4.067V8.933A4.072,4.072,0,0,1,9.931,13ZM1.017,4.067V8.933a3.054,3.054,0,0,0,3.051,3.049H9.931a3.054,3.054,0,0,0,3.051-3.049V8.744H10.745a2.333,2.333,0,0,1-.127-4.663l.128,0h2.237v-.01A3.054,3.054,0,0,0,9.931,1.017H4.069A3.054,3.054,0,0,0,1.017,4.067ZM9.428,6.41a1.317,1.317,0,0,0,1.215,1.313l.1,0h2.237V5.094H10.745A1.317,1.317,0,0,0,9.428,6.41Zm1.416.467a.509.509,0,0,1-.069-1.013l.069,0h.212a.509.509,0,0,1,.069,1.012l-.069,0ZM3.585,4.094a.509.509,0,0,1-.069-1.012l.069,0H7.247a.509.509,0,0,1,.069,1.012l-.069,0Z" fill="#457c77"/>
  </g>
</svg>
