<svg id="money-recive" xmlns="http://www.w3.org/2000/svg" width="13.339" height="13.339" viewBox="0 0 13.339 13.339">
  <path id="Vector" d="M2.39,4.73H1.345A1.37,1.37,0,0,1,0,3.34a.42.42,0,0,1,.417-.417.42.42,0,0,1,.417.417.535.535,0,0,0,.511.556H2.39a.412.412,0,0,0,.389-.434c0-.3-.083-.345-.272-.411L.834,2.468A1.135,1.135,0,0,1,0,1.267,1.251,1.251,0,0,1,1.223,0H2.268A1.37,1.37,0,0,1,3.613,1.389a.417.417,0,0,1-.834,0A.535.535,0,0,0,2.268.834H1.223a.412.412,0,0,0-.389.434c0,.3.083.345.272.411l1.673.584a1.135,1.135,0,0,1,.834,1.2A1.247,1.247,0,0,1,2.39,4.73Z" transform="translate(4.863 4.302)" fill="#457c77"/>
  <path id="Vector-2" data-name="Vector" d="M.417,5.836A.42.42,0,0,1,0,5.419v-5A.42.42,0,0,1,.417,0,.42.42,0,0,1,.834.417v5A.42.42,0,0,1,.417,5.836Z" transform="translate(6.253 3.752)" fill="#457c77"/>
  <path id="Vector-3" data-name="Vector" d="M5.975,11.949A5.975,5.975,0,0,1,5.975,0a.42.42,0,0,1,.417.417.42.42,0,0,1-.417.417,5.141,5.141,0,1,0,5.141,5.141.417.417,0,1,1,.834,0A5.98,5.98,0,0,1,5.975,11.949Z" transform="translate(0.695 0.695)" fill="#457c77"/>
  <path id="Vector-4" data-name="Vector" d="M2.64,3.057H.417A.42.42,0,0,1,0,2.64V.417A.42.42,0,0,1,.417,0,.42.42,0,0,1,.834.417V2.223H2.64a.417.417,0,0,1,0,.834Z" transform="translate(9.031 1.251)" fill="#457c77"/>
  <path id="Vector-5" data-name="Vector" d="M0,0H13.339V13.339H0Z" fill="none" opacity="0"/>
</svg>
