<svg id="box-add" xmlns="http://www.w3.org/2000/svg" width="14" height="14" viewBox="0 0 14 14">
  <path id="Vector" d="M2.777,5.548a2.739,2.739,0,0,1-2.106-.98A1.06,1.06,0,0,1,.6,4.48a1.574,1.574,0,0,1-.2-.292A2.688,2.688,0,0,1,0,2.771,2.749,2.749,0,0,1,1.038.607,2.8,2.8,0,0,1,2.771,0a2.706,2.706,0,0,1,1.8.671A1.53,1.53,0,0,1,4.8.887a2.786,2.786,0,0,1,.735,1.878,2.726,2.726,0,0,1-.4,1.429,2.465,2.465,0,0,1-.554.653A2.585,2.585,0,0,1,2.777,5.548Zm0-4.667a1.9,1.9,0,0,0-1.9,1.9,1.848,1.848,0,0,0,.274.974,1.476,1.476,0,0,0,.146.21.537.537,0,0,1,.076.093,1.877,1.877,0,0,0,2.642.152,1.679,1.679,0,0,0,.373-.443,1.837,1.837,0,0,0,.28-.98,1.91,1.91,0,0,0-.507-1.289.924.924,0,0,0-.134-.128A1.843,1.843,0,0,0,2.777.881Z" transform="translate(8.307 7.723)" fill="#457c77"/>
  <path id="Vector-2" data-name="Vector" d="M2.182.875H.438A.441.441,0,0,1,0,.438.441.441,0,0,1,.438,0H2.182a.438.438,0,0,1,0,.875Z" transform="translate(9.771 10.051)" fill="#457c77"/>
  <path id="Vector-3" data-name="Vector" d="M.438,2.619A.441.441,0,0,1,0,2.182V.438A.441.441,0,0,1,.438,0,.441.441,0,0,1,.875.438V2.182A.437.437,0,0,1,.438,2.619Z" transform="translate(10.646 9.199)" fill="#457c77"/>
  <path id="Vector-4" data-name="Vector" d="M5.59,3.858A.435.435,0,0,1,5.369,3.8L.218.819A.439.439,0,0,1,.06.218.433.433,0,0,1,.655.06L5.584,2.913l4.9-2.835a.435.435,0,0,1,.6.158.444.444,0,0,1-.158.6L5.806,3.8A.459.459,0,0,1,5.59,3.858Z" transform="translate(1.41 3.9)" fill="#457c77"/>
  <path id="Vector-5" data-name="Vector" d="M.438,6.166A.441.441,0,0,1,0,5.728V.438A.441.441,0,0,1,.438,0,.441.441,0,0,1,.875.438V5.728A.441.441,0,0,1,.438,6.166Z" transform="translate(6.563 6.877)" fill="#457c77"/>
  <path id="Vector-6" data-name="Vector" d="M6.049,12.552a2.917,2.917,0,0,1-1.423-.338L1.511,10.487A3.181,3.181,0,0,1,0,7.926v-3.3A3.189,3.189,0,0,1,1.511,2.064L4.626.337a3.163,3.163,0,0,1,2.841,0l3.115,1.727a3.181,3.181,0,0,1,1.511,2.561v3.3a.77.77,0,0,1-.012.163.43.43,0,0,1-.286.327.448.448,0,0,1-.432-.082,1.907,1.907,0,0,0-2.415-.041,1.88,1.88,0,0,0-.712,1.476,1.848,1.848,0,0,0,.274.974,1.476,1.476,0,0,0,.146.21.431.431,0,0,1,.1.362.437.437,0,0,1-.222.3l-1.068.589A2.835,2.835,0,0,1,6.049,12.552Zm0-11.667a2.125,2.125,0,0,0-.992.222L1.943,2.834A2.318,2.318,0,0,0,.887,4.624v3.3A2.334,2.334,0,0,0,1.943,9.717l3.115,1.727a2.328,2.328,0,0,0,1.989,0l.653-.362a2.768,2.768,0,0,1,.706-3.477,2.839,2.839,0,0,1,2.818-.391v-2.6a2.334,2.334,0,0,0-1.056-1.791L7.052,1.1A2.371,2.371,0,0,0,6.049.885Z" transform="translate(0.951 0.719)" fill="#457c77"/>
  <path id="Vector-7" data-name="Vector" d="M0,0H14V14H0Z" fill="none" opacity="0"/>
</svg>
