<svg xmlns="http://www.w3.org/2000/svg" width="43" height="43" viewBox="0 0 43 43">
  <g id="Group_1859" data-name="Group 1859" transform="translate(-0.028 -0.488)">
    <rect id="Rectangle_1595" data-name="Rectangle 1595" width="43" height="43" rx="10" transform="translate(0.028 0.488)" fill="#67d3b3"/>
    <g id="vuesax_outline_3d-cube-scan" data-name="vuesax/outline/3d-cube-scan" transform="translate(10.691 10.322)">
      <g id="_3d-cube-scan" data-name="3d-cube-scan">
        <path id="Vector" d="M19.607,9.444a.784.784,0,0,1-.709-.833V6.389c0-2.867-1.578-4.722-4.016-4.722H5.433C3,1.667,1.417,3.522,1.417,6.389V8.611a.784.784,0,0,1-.709.833A.784.784,0,0,1,0,8.611V6.389C0,2.567,2.183,0,5.433,0h9.449c3.25,0,5.433,2.567,5.433,6.389V8.611A.784.784,0,0,1,19.607,9.444Z" transform="translate(1.389 1.389)" fill="#fff"/>
        <path id="Vector-2" data-name="Vector" d="M14.882,9.444H5.433C2.183,9.444,0,6.878,0,3.055V.833A.784.784,0,0,1,.709,0a.784.784,0,0,1,.709.833V3.055C1.417,5.922,3,7.778,5.433,7.778h9.449c2.438,0,4.016-1.855,4.016-4.722V.833a.718.718,0,1,1,1.417,0V3.055C20.316,6.878,18.133,9.444,14.882,9.444Z" transform="translate(1.389 12.26)" fill="#fff"/>
        <path id="Vector-3" data-name="Vector" d="M4.932,5.07a.488.488,0,0,1-.31-.111L.3,1.559A1.018,1.018,0,0,1,.084.415c.171-.4.546-.533.831-.3L4.924,3.281,8.907.137c.293-.233.668-.089.831.3a1.032,1.032,0,0,1-.22,1.144L5.233,4.959A.517.517,0,0,1,4.932,5.07Z" transform="translate(6.607 7.897)" fill="#fff"/>
        <path id="Vector-4" data-name="Vector" d="M.833,7.711A.839.839,0,0,1,0,6.878V.833A.839.839,0,0,1,.833,0a.839.839,0,0,1,.833.833V6.878A.839.839,0,0,1,.833,7.711Z" transform="translate(10.713 10.441)" fill="#fff"/>
        <path id="Vector-5" data-name="Vector" d="M5.447,11.441A2.831,2.831,0,0,1,4.1,11.119L1.422,9.612A3.04,3.04,0,0,1,0,7.157V4.286A3.086,3.086,0,0,1,1.422,1.831L4.1.324a2.963,2.963,0,0,1,2.694,0L9.471,1.831a3.04,3.04,0,0,1,1.422,2.455v2.87A3.086,3.086,0,0,1,9.471,9.612L6.794,11.119A2.831,2.831,0,0,1,5.447,11.441Zm-.736-10L2.033,2.949a1.775,1.775,0,0,0-.778,1.338v2.87a1.76,1.76,0,0,0,.778,1.338L4.711,10a1.787,1.787,0,0,0,1.473,0L8.86,8.494a1.775,1.775,0,0,0,.778-1.338V4.286A1.76,1.76,0,0,0,8.86,2.949L6.183,1.441A1.787,1.787,0,0,0,4.711,1.441Z" transform="translate(6.1 5.819)" fill="#fff"/>
        <path id="Vector-6" data-name="Vector" d="M0,0H23.093V23.093H0Z" fill="none" opacity="0"/>
      </g>
    </g>
  </g>
</svg>
