<svg id="vuesax_outline_3d-cube-scan" data-name="vuesax/outline/3d-cube-scan" xmlns="http://www.w3.org/2000/svg" width="18.91" height="18.909" viewBox="0 0 18.91 18.909">
  <g id="_3d-cube-scan" data-name="3d-cube-scan">
    <g id="Group_1882" data-name="Group 1882" transform="translate(-1.137 -1.137)">
      <path id="Vector" d="M18.25,8.79a.73.73,0,0,1-.66-.776V5.946c0-2.668-1.469-4.4-3.738-4.4H5.057c-2.269,0-3.738,1.727-3.738,4.4V8.015a.73.73,0,0,1-.66.776A.73.73,0,0,1,0,8.015V5.946C0,2.389,2.032,0,5.057,0h8.795c3.025,0,5.057,2.389,5.057,5.946V8.015A.73.73,0,0,1,18.25,8.79Z" transform="translate(1.138 1.137)" fill="gray"/>
      <path id="Vector-2" data-name="Vector" d="M13.852,8.79H5.057C2.032,8.79,0,6.4,0,2.844V.776A.73.73,0,0,1,.66,0a.73.73,0,0,1,.66.776V2.844c0,2.668,1.469,4.4,3.738,4.4h8.795c2.269,0,3.738-1.727,3.738-4.4V.776a.668.668,0,1,1,1.319,0V2.844C18.909,6.4,16.878,8.79,13.852,8.79Z" transform="translate(1.138 11.256)" fill="gray"/>
      <path id="Vector-3" data-name="Vector" d="M4.59,4.719a.454.454,0,0,1-.288-.1L.283,1.451A.948.948,0,0,1,.078.386C.238.014.586-.11.852.107L4.583,3.054,8.291.128c.273-.217.622-.083.773.279a.961.961,0,0,1-.2,1.065L4.871,4.616A.481.481,0,0,1,4.59,4.719Z" transform="translate(5.994 7.195)" fill="gray"/>
      <path id="Vector-4" data-name="Vector" d="M.686,5.533A.651.651,0,0,1,0,4.935V.6A.651.651,0,0,1,.686,0a.651.651,0,0,1,.686.6V4.935A.651.651,0,0,1,.686,5.533Z" transform="translate(9.906 10.376)" fill="gray"/>
      <path id="Vector-5" data-name="Vector" d="M5.07,10.649a2.635,2.635,0,0,1-1.254-.3l-2.492-1.4A2.83,2.83,0,0,1,0,6.661V3.99A2.873,2.873,0,0,1,1.324,1.7L3.816.3A2.758,2.758,0,0,1,6.324.3L8.816,1.7A2.83,2.83,0,0,1,10.139,3.99V6.661A2.873,2.873,0,0,1,8.816,8.947l-2.492,1.4A2.635,2.635,0,0,1,5.07,10.649ZM4.384,1.342l-2.492,1.4A1.652,1.652,0,0,0,1.168,3.99V6.661a1.638,1.638,0,0,0,.724,1.245l2.492,1.4a1.663,1.663,0,0,0,1.371,0l2.492-1.4a1.652,1.652,0,0,0,.724-1.245V3.99a1.638,1.638,0,0,0-.724-1.245l-2.492-1.4A1.663,1.663,0,0,0,4.384,1.342Z" transform="translate(5.523 5.261)" fill="gray"/>
    </g>
    <path id="Vector-6" data-name="Vector" d="M0,0H18.909V18.909H0Z" fill="none" opacity="0"/>
  </g>
</svg>
