<svg id="Iconly_Broken_Profile" data-name="Iconly/Broken/Profile" xmlns="http://www.w3.org/2000/svg" width="15" height="18" viewBox="0 0 15 18">
  <g id="Profile">
    <path id="Profile-2" data-name="Profile" d="M6.542,17.987a.658.658,0,0,1-.656-.664.679.679,0,0,1,.7-.628q.453.012.92.012c4.077,0,6.145-.676,6.145-2.01s-2.068-2.03-6.145-2.03-6.145.677-6.145,2.011c0,.437.162,1.069,1.57,1.524a.639.639,0,0,1,.424.818.683.683,0,0,1-.859.405C.432,16.761,0,15.566,0,14.679c0-2.961,4.28-3.3,7.5-3.3,1.855,0,7.5,0,7.5,3.322,0,2.96-4.28,3.3-7.5,3.3Q7.013,18,6.542,17.987ZM2.449,4.819A4.944,4.944,0,0,1,7.5,0a4.944,4.944,0,0,1,5.05,4.819A4.943,4.943,0,0,1,7.5,9.636,4.944,4.944,0,0,1,2.449,4.819Zm1.356,0A3.617,3.617,0,0,0,7.5,8.343a3.617,3.617,0,0,0,3.7-3.524A3.617,3.617,0,0,0,7.5,1.294,3.617,3.617,0,0,0,3.805,4.819Z" fill="#457c77"/>
  </g>
</svg>
