<svg xmlns="http://www.w3.org/2000/svg" width="16.493" height="14.238" viewBox="0 0 16.493 14.238">
  <path id="chat-question" d="M15.311,7.272a4,4,0,0,0-1.592-.98V1.208A1.208,1.208,0,0,0,12.511,0H1.208A1.208,1.208,0,0,0,0,1.208V10.13a1.208,1.208,0,0,0,.356.851l.038.035a1.208,1.208,0,0,0,.815.321H2.684v2.4a.5.5,0,0,0,.5.5.5.5,0,0,0,.373-.168L6.4,11.337H8.605a4.094,4.094,0,0,0,1,1.644,4.037,4.037,0,1,0,5.709-5.709ZM12.724,6.1a4.037,4.037,0,0,0-4.3,4.245H6.2a.494.494,0,0,0-.344.134l-2.185,2.1V10.832a.5.5,0,0,0-.5-.5H1.208a.22.22,0,0,1-.134-.048l-.013-.013A.212.212,0,0,1,1,10.124V1.208A.22.22,0,0,1,1.208.995H12.514a.213.213,0,0,1,.149.064.209.209,0,0,1,.062.149ZM3.413,7.415a.5.5,0,1,1,0-.995H8.029a.5.5,0,0,1,0,.995Zm0-2.944a.5.5,0,1,1,0-.995h6.894a.5.5,0,1,1,0,.995Zm9.51,6.657H11.812a3.285,3.285,0,0,1,.063-.788,1.012,1.012,0,0,1,.192-.322,5.545,5.545,0,0,1,.57-.514c.158-.134.236-.247.236-.353a.33.33,0,0,0-.1-.251.413.413,0,0,0-.287-.087.46.46,0,0,0-.342.134.8.8,0,0,0-.174.478l-1.132-.134a1.54,1.54,0,0,1,.452-1.005,1.694,1.694,0,0,1,1.208-.38,1.8,1.8,0,0,1,1.027.268,1.107,1.107,0,0,1,.537.958.926.926,0,0,1-.134.479,2.338,2.338,0,0,1-.56.562A1.519,1.519,0,0,0,13,10.55a1.9,1.9,0,0,0-.077.587Zm.04.4v.817H11.775V11.53Z" fill="#457c77" fill-rule="evenodd"/>
</svg>
