<svg id="info-circle" xmlns="http://www.w3.org/2000/svg" width="19.002" height="19.002" viewBox="0 0 19.002 19.002">
  <path id="Vector" d="M8.511,17.023a8.511,8.511,0,1,1,8.511-8.511A8.518,8.518,0,0,1,8.511,17.023Zm0-15.835a7.324,7.324,0,1,0,7.324,7.324A7.332,7.332,0,0,0,8.511,1.188Z" transform="translate(0.99 0.99)" fill="#fd7976"/>
  <path id="Vector-2" data-name="Vector" d="M.594,5.146A.6.6,0,0,1,0,4.553V.594A.6.6,0,0,1,.594,0a.6.6,0,0,1,.594.594V4.553A.6.6,0,0,1,.594,5.146Z" transform="translate(8.907 5.74)" fill="#fd7976"/>
  <path id="Vector-3" data-name="Vector" d="M.792,1.58a.788.788,0,0,1-.3-.063A.914.914,0,0,1,.23,1.35a.817.817,0,0,1-.166-.261A.788.788,0,0,1,0,.788a.788.788,0,0,1,.063-.3A.914.914,0,0,1,.23.226.914.914,0,0,1,.491.059a.792.792,0,0,1,.6,0,.914.914,0,0,1,.261.166A.914.914,0,0,1,1.52.487a.788.788,0,0,1,.063.3.788.788,0,0,1-.063.3.817.817,0,0,1-.166.261.914.914,0,0,1-.261.166A.788.788,0,0,1,.792,1.58Z" transform="translate(8.709 11.88)" fill="#fd7976"/>
  <path id="Vector-4" data-name="Vector" d="M0,0H19V19H0Z" fill="none" opacity="0"/>
</svg>
