<svg id="Icon_Share_Outlined" data-name="Icon / Share / Outlined" xmlns="http://www.w3.org/2000/svg" width="24" height="24" viewBox="0 0 24 24">
  <g id="Icon_Share_Outlined-2" data-name="Icon / Share / Outlined">
    <rect id="Box" width="24" height="24" fill="none"/>
    <path id="Subtraction_3" data-name="Subtraction 3" d="M15,19.92A2.924,2.924,0,0,1,12.081,17a2.758,2.758,0,0,1,.081-.649l-7.12-4.162a3,3,0,1,1,0-4.378L12.09,3.7A3.341,3.341,0,0,1,12,3a3.017,3.017,0,1,1,.96,2.189L5.911,9.3A3.341,3.341,0,0,1,6,10a3.34,3.34,0,0,1-.09.7l7.13,4.15A2.916,2.916,0,1,1,15,19.92ZM15,16a1,1,0,1,0,1,1A1,1,0,0,0,15,16ZM3,9a1,1,0,1,0,1,1A1,1,0,0,0,3,9ZM15,2a1,1,0,1,0,1,1A1,1,0,0,0,15,2Z" transform="translate(3 2)" fill="#333"/>
  </g>
</svg>
