<svg id="Iconly_Broken_Star" data-name="Iconly/Broken/Star" xmlns="http://www.w3.org/2000/svg" width="15.995" height="16.002" viewBox="0 0 15.995 16.002">
  <g id="Star">
    <path id="Star-2" data-name="Star" d="M12.4,15.936a.536.536,0,0,1-.282-.072L8.006,13.7,4.387,15.648a1.217,1.217,0,0,1-1.649-.49l-.012-.022a1.312,1.312,0,0,1-.126-.8l.7-4.155L.361,7.2a1.281,1.281,0,0,1,0-1.782,1.2,1.2,0,0,1,.7-.361L5.1,4.445,6.893.707a1.212,1.212,0,0,1,2.2,0l1.8,3.751,4.048.62a1.22,1.22,0,0,1,.813.5,1.319,1.319,0,0,1-.13,1.665L12.7,10.186l.408,2.239a.626.626,0,0,1-.5.72.606.606,0,0,1-.7-.49l-.415-2.239a1.3,1.3,0,0,1,.352-1.126l2.936-2.965L10.73,5.7a1.216,1.216,0,0,1-.922-.72l-1.8-3.735L6.182,5.036a1.214,1.214,0,0,1-.922.72l-4.034.613L4.14,9.329a1.273,1.273,0,0,1,.352,1.111l-.7,4.155,3.618-1.941a1.177,1.177,0,0,1,1.154,0l4.1,2.165a.631.631,0,0,1,.31.7.616.616,0,0,1-.591.48Z" transform="translate(0 0)" fill="#457c77"/>
  </g>
</svg>
