<svg xmlns="http://www.w3.org/2000/svg" width="16.79" height="16.79" viewBox="0 0 16.79 16.79">
  <g id="vuesax_outline_note-2" data-name="vuesax/outline/note-2" transform="translate(-108 -252)">
    <g id="note-2" transform="translate(108 252)">
      <path id="Vector" d="M6.711,12.892a5.514,5.514,0,0,1-.574-.028,7.584,7.584,0,0,1-1.2-.2l-1.175-.28C.534,11.619-.522,9.912.233,6.694L.919,3.763a7.435,7.435,0,0,1,.56-1.651C2.682-.372,4.983-.148,6.62.237L7.789.51a4.847,4.847,0,0,1,3.253,1.924,4.83,4.83,0,0,1,.28,3.764l-.686,2.924C10.034,11.682,8.782,12.892,6.711,12.892ZM4.829,1.048A2.418,2.418,0,0,0,2.423,2.566,7.111,7.111,0,0,0,1.94,4L1.255,6.932c-.623,2.644.1,3.8,2.742,4.428l1.175.28a7.209,7.209,0,0,0,1.056.175c1.9.189,2.847-.644,3.379-2.931l.686-2.924a3.9,3.9,0,0,0-.147-2.973,3.877,3.877,0,0,0-2.6-1.455L6.376,1.258A6.707,6.707,0,0,0,4.829,1.048Z" transform="translate(4.349 1.225)" fill="#457c77"/>
      <path id="Vector-2" data-name="Vector" d="M4.963,12.52c-1.8,0-2.945-1.077-3.68-3.351l-.9-2.763C-.605,3.327.283,1.592,3.347.6L4.453.242A7.291,7.291,0,0,1,5.334.011a.506.506,0,0,1,.518.2A.543.543,0,0,1,5.908.76a6.52,6.52,0,0,0-.476,1.427L4.746,5.118c-.623,2.644.1,3.8,2.742,4.428l1.175.28A7.209,7.209,0,0,0,9.721,10a.538.538,0,0,1,.469.392.526.526,0,0,1-.21.567,6.92,6.92,0,0,1-1.777.819L7.1,12.142A7.2,7.2,0,0,1,4.963,12.52ZM4.579,1.306l-.9.294c-2.5.8-3.092,1.98-2.288,4.484l.9,2.763c.812,2.5,1.987,3.1,4.484,2.295l1.105-.364.119-.042-.742-.175C4.026,9.8,2.97,8.092,3.725,4.873l.686-2.931C4.46,1.718,4.516,1.5,4.579,1.306Z" transform="translate(0.864 3.046)" fill="#457c77"/>
      <path id="Vector-3" data-name="Vector" d="M3.92,1.9a.956.956,0,0,1-.133-.014L.394,1.03A.523.523,0,0,1,.652.016l3.393.86A.522.522,0,0,1,3.92,1.9Z" transform="translate(8.316 5.448)" fill="#457c77"/>
      <path id="Vector-4" data-name="Vector" d="M2.562,1.562a.956.956,0,0,1-.133-.014L.394,1.03A.523.523,0,0,1,.652.016L2.688.534a.524.524,0,0,1,.378.637A.509.509,0,0,1,2.562,1.562Z" transform="translate(7.624 8.155)" fill="#457c77"/>
      <path id="Vector-5" data-name="Vector" d="M0,0H16.79V16.79H0Z" fill="none" opacity="0"/>
    </g>
  </g>
</svg>
