<svg id="timer" xmlns="http://www.w3.org/2000/svg" width="12.711" height="12.711" viewBox="0 0 12.711 12.711">
  <path id="Vector" d="M5.56,11.387H2.128A1.988,1.988,0,0,1,.116,10.249,2.149,2.149,0,0,1,.794,7.934l2.458-2.24L.794,3.453A2.149,2.149,0,0,1,.116,1.139,1.981,1.981,0,0,1,2.128,0H5.56A1.988,1.988,0,0,1,7.573,1.139,2.149,2.149,0,0,1,6.9,3.453L4.438,5.694,6.9,7.934a2.159,2.159,0,0,1,.678,2.315A2,2,0,0,1,5.56,11.387ZM3.844,6.229,1.329,8.517A1.394,1.394,0,0,0,.857,9.957c.159.408.609.636,1.271.636H5.56c.662,0,1.112-.222,1.271-.636A1.384,1.384,0,0,0,6.36,8.517ZM2.128.794c-.662,0-1.112.222-1.271.636a1.384,1.384,0,0,0,.471,1.441L3.844,5.159,6.36,2.871A1.394,1.394,0,0,0,6.832,1.43C6.673,1.022,6.223.794,5.56.794Z" transform="translate(2.511 0.662)" fill="#457c77"/>
  <path id="Vector-2" data-name="Vector" d="M0,0H12.711V12.711H0Z" fill="none" opacity="0"/>
</svg>
