<svg id="Heart" xmlns="http://www.w3.org/2000/svg" width="19.602" height="18.62" viewBox="0 0 19.602 18.62">
  <path id="Heart-2" data-name="Heart" d="M9.439,18.518l-.24-.145a34.057,34.057,0,0,1-5.885-4.579A12.092,12.092,0,0,1,.4,9.143a7.6,7.6,0,0,1,.2-5.388A6.172,6.172,0,0,1,4.395.309a6.432,6.432,0,0,1,5.145.53L9.8.994l.263-.156A6.441,6.441,0,0,1,14.942.231L15.2.309a6.181,6.181,0,0,1,3.8,3.449,7.625,7.625,0,0,1,.2,5.4A12.243,12.243,0,0,1,16.287,13.8a34.079,34.079,0,0,1-5.876,4.571l-.225.14a.72.72,0,0,1-.747.006ZM4.834,1.672A4.769,4.769,0,0,0,1.885,4.382a6.152,6.152,0,0,0-.128,4.308,10.794,10.794,0,0,0,2.561,4.085A32.591,32.591,0,0,0,9.942,17.15L9.8,17.061l.458-.288a32.567,32.567,0,0,0,4.5-3.5l.518-.492A10.746,10.746,0,0,0,17.843,8.7a6.159,6.159,0,0,0-.127-4.319,4.776,4.776,0,0,0-2.952-2.713,5.006,5.006,0,0,0-4.535.765.718.718,0,0,1-.848.009l-.193-.138a5,5,0,0,0-4.354-.635Zm9.66,5.287a1.941,1.941,0,0,0-1.335-1.691A.716.716,0,1,1,13.594,3.9a3.374,3.374,0,0,1,2.328,2.935.717.717,0,0,1-.654.774l-.061,0A.717.717,0,0,1,14.494,6.959Z" transform="translate(0)" fill="#e3e3e3"/>
</svg>
