<svg id="Iconly_Bold_Star" data-name="Iconly/Bold/Star" xmlns="http://www.w3.org/2000/svg" width="16.239" height="15.471" viewBox="0 0 16.239 15.471">
  <g id="Star">
    <path id="Star-2" data-name="Star" d="M12.924,9.624a.9.9,0,0,0-.259.79l.722,4.006a.881.881,0,0,1-.365.879.892.892,0,0,1-.95.065l-3.6-1.881a.916.916,0,0,0-.406-.107H7.85a.658.658,0,0,0-.219.073l-3.6,1.89a.946.946,0,0,1-.576.09.9.9,0,0,1-.723-1.035l.723-4.006a.913.913,0,0,0-.259-.8L.267,6.742a.881.881,0,0,1-.218-.92A.912.912,0,0,1,.77,5.211l4.035-.587a.9.9,0,0,0,.714-.5L7.3.472A.847.847,0,0,1,7.46.252L7.533.2A.545.545,0,0,1,7.664.09L7.752.057,7.89,0h.342a.908.908,0,0,1,.714.489l1.8,3.64a.9.9,0,0,0,.674.5l4.035.587a.921.921,0,0,1,.739.611.886.886,0,0,1-.235.92Z" transform="translate(0)" fill="#ffc212"/>
  </g>
</svg>
